<?xml version="1.0" encoding="utf-8"?>
<!-- Generator: Adobe Illustrator 16.0.0, SVG Export Plug-In . SVG Version: 6.00 Build 0)  -->
<!DOCTYPE svg PUBLIC "-//W3C//DTD SVG 1.1//EN" "http://www.w3.org/Graphics/SVG/1.1/DTD/svg11.dtd">
<svg version="1.1" id="Layer_1" xmlns="http://www.w3.org/2000/svg" xmlns:xlink="http://www.w3.org/1999/xlink" x="0px" y="0px"
	 width="16px" height="16.001px" viewBox="0 0 16 16.001" enable-background="new 0 0 16 16.001" xml:space="preserve">
<path fill-rule="evenodd" clip-rule="evenodd" fill="#FFFFFF" d="M11.077,6.77c0,2.376-1.933,4.309-4.308,4.309
	c-2.375,0-4.308-1.933-4.308-4.309c0-2.375,1.933-4.308,4.308-4.308C9.144,2.462,11.077,4.395,11.077,6.77z M16,14.771
	c0-0.326-0.135-0.643-0.355-0.866l-3.298-3.298c0.778-1.125,1.191-2.471,1.191-3.837c0-3.74-3.028-6.77-6.769-6.77
	C3.029,0,0,3.029,0,6.77c0,3.741,3.029,6.77,6.769,6.77c1.366,0,2.712-0.413,3.837-1.192l3.297,3.289
	c0.223,0.23,0.539,0.365,0.866,0.365C15.442,16.001,16,15.444,16,14.771z"/>
</svg>
